<svg fill="#ffa800" id="Layer_1" data-name="Layer 1" xmlns="http://www.w3.org/2000/svg" viewBox="0 0 64 64"><path d="M48,61H32a1,1,0,0,1-1-1V50a1,1,0,0,1,1-1H48a1,1,0,0,1,1,1V60A1,1,0,0,1,48,61ZM33,59H47V51H33Z"/><path d="M18,46H16a3,3,0,0,1-3-3V41a3,3,0,0,1,3-3h2a3,3,0,0,1,3,3v2A3,3,0,0,1,18,46Zm-2-6a1,1,0,0,0-1,1v2a1,1,0,0,0,1,1h2a1,1,0,0,0,1-1V41a1,1,0,0,0-1-1Z"/><path d="M18,56H16a3,3,0,0,1-3-3V51a3,3,0,0,1,3-3h2a3,3,0,0,1,3,3v2A3,3,0,0,1,18,56Zm-2-6a1,1,0,0,0-1,1v2a1,1,0,0,0,1,1h2a1,1,0,0,0,1-1V51a1,1,0,0,0-1-1Z"/><path d="M18,16H16a3,3,0,0,1-3-3V11a3,3,0,0,1,3-3h2a3,3,0,0,1,3,3v2A3,3,0,0,1,18,16Zm-2-6a1,1,0,0,0-1,1v2a1,1,0,0,0,1,1h2a1,1,0,0,0,1-1V11a1,1,0,0,0-1-1Z"/><path d="M35,16H33a3,3,0,0,1-3-3V11a3,3,0,0,1,3-3h2a3,3,0,0,1,3,3v2A3,3,0,0,1,35,16Zm-2-6a1,1,0,0,0-1,1v2a1,1,0,0,0,1,1h2a1,1,0,0,0,1-1V11a1,1,0,0,0-1-1Z"/><path d="M18,36H16a3,3,0,0,1-3-3V31a3,3,0,0,1,3-3h2a3,3,0,0,1,3,3v2A3,3,0,0,1,18,36Zm-2-6a1,1,0,0,0-1,1v2a1,1,0,0,0,1,1h2a1,1,0,0,0,1-1V31a1,1,0,0,0-1-1Z"/><path d="M35,41H33a3,3,0,0,1-3-3V36a3,3,0,0,1,3-3h2a3,3,0,0,1,3,3v2A3,3,0,0,1,35,41Zm-2-6a1,1,0,0,0-1,1v2a1,1,0,0,0,1,1h2a1,1,0,0,0,1-1V36a1,1,0,0,0-1-1Z"/><path d="M47,31H45a3,3,0,0,1-3-3V26a3,3,0,0,1,3-3h2a3,3,0,0,1,3,3v2A3,3,0,0,1,47,31Zm-2-6a1,1,0,0,0-1,1v2a1,1,0,0,0,1,1h2a1,1,0,0,0,1-1V26a1,1,0,0,0-1-1Z"/><path d="M47,41H45a3,3,0,0,1-3-3V36a3,3,0,0,1,3-3h2a3,3,0,0,1,3,3v2A3,3,0,0,1,47,41Zm-2-6a1,1,0,0,0-1,1v2a1,1,0,0,0,1,1h2a1,1,0,0,0,1-1V36a1,1,0,0,0-1-1Z"/><path d="M35,31H33a3,3,0,0,1-3-3V26a3,3,0,0,1,3-3h2a3,3,0,0,1,3,3v2A3,3,0,0,1,35,31Zm-2-6a1,1,0,0,0-1,1v2a1,1,0,0,0,1,1h2a1,1,0,0,0,1-1V26a1,1,0,0,0-1-1Z"/><path d="M18,16H16a3,3,0,0,1-3-3V11a3,3,0,0,1,3-3h2a3,3,0,0,1,3,3v2A3,3,0,0,1,18,16Zm-2-6a1,1,0,0,0-1,1v2a1,1,0,0,0,1,1h2a1,1,0,0,0,1-1V11a1,1,0,0,0-1-1Z"/><path d="M55,61H25a1,1,0,0,1-1-1V20a1,1,0,0,1,1-1H55a1,1,0,0,1,1,1V60A1,1,0,0,1,55,61ZM26,59H54V21H26Z"/><path d="M18,16H16a3,3,0,0,1-3-3V11a3,3,0,0,1,3-3h2a3,3,0,0,1,3,3v2A3,3,0,0,1,18,16Zm-2-6a1,1,0,0,0-1,1v2a1,1,0,0,0,1,1h2a1,1,0,0,0,1-1V11a1,1,0,0,0-1-1Z"/><path d="M25,61H9a1,1,0,0,1-1-1V4A1,1,0,0,1,9,3H41a1,1,0,0,1,1,1V20a1,1,0,0,1-1,1H26V60A1,1,0,0,1,25,61ZM10,59H24V20a1,1,0,0,1,1-1H40V5H10Zm8-43H16a3,3,0,0,1-3-3V11a3,3,0,0,1,3-3h2a3,3,0,0,1,3,3v2A3,3,0,0,1,18,16Zm-2-6a1,1,0,0,0-1,1v2a1,1,0,0,0,1,1h2a1,1,0,0,0,1-1V11a1,1,0,0,0-1-1Z"/><path d="M18,16H16a3,3,0,0,1-3-3V11a3,3,0,0,1,3-3h2a3,3,0,0,1,3,3v2A3,3,0,0,1,18,16Zm-2-6a1,1,0,0,0-1,1v2a1,1,0,0,0,1,1h2a1,1,0,0,0,1-1V11a1,1,0,0,0-1-1Z"/><path d="M18,26H16a3,3,0,0,1-3-3V21a3,3,0,0,1,3-3h2a3,3,0,0,1,3,3v2A3,3,0,0,1,18,26Zm-2-6a1,1,0,0,0-1,1v2a1,1,0,0,0,1,1h2a1,1,0,0,0,1-1V21a1,1,0,0,0-1-1Z"/></svg>